<?xml version="1.0" standalone="no"?>
<!DOCTYPE svg PUBLIC "-//W3C//DTD SVG 1.0//EN" "http://www.w3.org/TR/2001/REC-SVG-20010904/DTD/svg10.dtd">
<svg xmlns="http://www.w3.org/2000/svg" xmlns:xlink="http://www.w3.org/1999/xlink" id="body_1" width="41" height="31">

<g transform="matrix(0.04003906 0 0 0.04036459 0 0)">
    <path transform="matrix(1.60611 0 0 1.60611 128 0)"  d="M457.525 153.074C 459.425 147.974 461.225 141.074 461.725 133.074C 462.425 118.974 458.925 99.174 439.025 81.174C 440.325 71.97401 440.325 57.374 432.225 42.874C 421.525 23.674 400.625 10.674 370.025 4.174004C 349.525 -0.2259965 322.625 -1.125997 290.025 1.374004C 224.325 0.0740037 160.325 8.174004 156.725 8.674004L156.725 8.674004L133.225 11.474C 126.425 6.674004 118.125 3.874004 109.225 3.874004L109.225 3.874004L48.22499 3.874004C 25.22499 3.874004 6.624992 22.57401 6.624992 45.474L6.624992 45.474L6.624992 207.974C 6.624992 230.974 25.32499 249.574 48.22499 249.574L48.22499 249.574L109.225 249.574C 116.425 249.574 123.125 247.774 129.025 244.574C 133.225 253.774 139.425 264.274 148.625 273.974C 149.125 274.474 149.625 274.974 150.225 275.374C 181.625 299.474 218.625 386.274 231.725 421.674C 230.425 432.674 229.125 456.474 240.125 469.374C 245.025 475.074 251.825 478.174 259.425 478.174C 267.125 478.174 293.725 476.374 310.325 453.474C 326.025 431.674 326.925 399.074 312.925 356.474C 301.125 320.674 300.025 304.774 300.425 298.374C 305.825 299.574 311.125 300.674 316.225 301.574L316.225 301.574L316.325 301.574C 317.225 301.774 339.225 306.674 365.525 307.874C 402.925 309.674 430.025 303.174 445.825 288.674C 467.625 268.774 465.025 243.374 458.525 227.174C 464.125 219.874 470.925 207.974 471.525 192.774C 471.925 178.974 467.325 165.674 457.525 153.074zM109.225 222.674L48.225 222.674C 40.125 222.674 33.625 216.074 33.625 208.074L33.625 208.074L33.625 45.57399C 33.625 37.47399 40.225 30.97399 48.225 30.97399L48.225 30.97399L109.225 30.97399C 117.325 30.97399 123.825 37.57399 123.825 45.57399L123.825 45.57399L123.825 208.074C 123.825 216.174 117.325 222.674 109.225 222.674zM430.925 232.374C 430.925 232.474 434.425 237.974 435.625 245.474C 437.125 254.774 434.525 262.474 427.525 268.874C 408.425 286.274 353.425 282.274 322.725 275.474C 322.325 275.374 321.925 275.274 321.425 275.174C 315.925 274.174 310.025 272.974 304.025 271.674C 297.625 269.374 288.825 269.674 282.225 275.574C 268.925 287.374 270.425 314.174 287.125 365.074C 298.125 398.474 298.525 423.674 288.325 437.774C 279.725 449.674 265.525 451.174 260.125 451.274C 257.725 447.274 257.025 433.574 258.825 422.274C 259.125 420.074 258.925 417.774 258.225 415.574C 256.325 410.474 212.425 290.274 167.525 254.674C 155.825 241.974 150.725 227.074 148.925 220.374C 150.125 216.474 150.825 212.274 150.825 207.974L150.825 207.974L150.825 45.57399C 150.825 42.57399 150.525 39.57399 149.925 36.77399L149.925 36.77399L160.025 35.57399L160.125 35.57399C 160.725 35.47399 225.825 27.07399 290.125 28.47399C 290.525 28.47399 291.025 28.47399 291.525 28.47399C 321.825 26.07399 346.325 26.77399 364.425 30.67399C 386.825 35.47399 401.625 43.87399 408.425 55.77399C 415.525 68.07399 411.625 80.77399 411.325 81.97399C 409.225 87.57399 411.125 93.67399 415.925 97.27399C 445.525 119.474 431.925 145.374 430.125 148.574C 426.825 153.774 427.625 160.374 431.925 164.874C 440.525 173.874 444.725 182.874 444.425 191.674C 444.025 204.774 433.925 214.574 433.225 215.174C 428.225 219.474 427.325 226.774 430.925 232.374z" stroke="none" fill="#000000" fill-rule="nonzero" />
</g>
</svg>