<?xml version="1.0" encoding="UTF-8" standalone="no"?>
<svg
   xmlns:dc="http://purl.org/dc/elements/1.1/"
   xmlns:cc="http://creativecommons.org/ns#"
   xmlns:rdf="http://www.w3.org/1999/02/22-rdf-syntax-ns#"
   xmlns:svg="http://www.w3.org/2000/svg"
   xmlns="http://www.w3.org/2000/svg"
   xmlns:sodipodi="http://sodipodi.sourceforge.net/DTD/sodipodi-0.dtd"
   xmlns:inkscape="http://www.inkscape.org/namespaces/inkscape"
   id="body_1"
   width="41"
   height="31"
   version="1.1"
   sodipodi:docname="like-res.svg"
   inkscape:version="1.0.1 (c497b03c, 2020-09-10)">
  <metadata
     id="metadata279">
    <rdf:RDF>
      <cc:Work
         rdf:about="">
        <dc:format>image/svg+xml</dc:format>
        <dc:type
           rdf:resource="http://purl.org/dc/dcmitype/StillImage" />
      </cc:Work>
    </rdf:RDF>
  </metadata>
  <defs
     id="defs277" />
  <sodipodi:namedview
     pagecolor="#ffffff"
     bordercolor="#666666"
     borderopacity="1"
     objecttolerance="10"
     gridtolerance="10"
     guidetolerance="10"
     inkscape:pageopacity="0"
     inkscape:pageshadow="2"
     inkscape:window-width="1680"
     inkscape:window-height="1005"
     id="namedview275"
     showgrid="false"
     inkscape:zoom="23.709677"
     inkscape:cx="20.5"
     inkscape:cy="15.5"
     inkscape:window-x="0"
     inkscape:window-y="23"
     inkscape:window-maximized="0"
     inkscape:current-layer="body_1" />
  <g
     transform="matrix(0.04003906 0 0 0.04036459 0 0)"
     id="g272">
    <path
       transform="matrix(1.606023 0 0 1.606023 128 0)"
       d="M457.575 325.1C 467.375 312.6 472.075 299.2 471.475 285.4C 470.875 270.2 464.075 258.3 458.475 251C 464.975 234.8 467.475 209.3 445.775 189.5C 429.875 175 402.875 168.5 365.475 170.3C 339.175 171.5 317.175 176.4 316.275 176.6L316.275 176.6L316.175 176.6C 311.175 177.5 305.875 178.6 300.4749 179.8C 300.075 173.4 301.175 157.5 312.9749 121.7C 326.9749 79.10001 326.175 46.50001 310.3749 24.7C 293.7749 1.800005 267.2749 3.814697E-06 259.4749 3.814697E-06C 251.9749 3.814697E-06 245.075 3.100004 240.1749 8.800004C 229.0749 21.7 230.3749 45.5 231.7749 56.5C 218.575 91.90001 181.575 178.7 150.2749 202.8C 149.6749 203.2 149.1749 203.7 148.6749 204.2C 139.4749 213.9 133.2749 224.4 129.0749 233.6C 123.1749 230.4 116.4749 228.6 109.2749 228.6L109.2749 228.6L48.27493 228.6C 25.27493 228.6 6.674934 247.3 6.674934 270.2L6.674934 270.2L6.674934 432.7C 6.674934 455.7 25.37494 474.3 48.27493 474.3L48.27493 474.3L109.2749 474.3C 118.1749 474.3 126.4749 471.5 133.2749 466.7L133.2749 466.7L156.7749 469.5C 160.3749 470 224.3749 478.1 290.075 476.8C 301.9749 477.7 313.175 478.2 323.575 478.2C 341.4749 478.2 357.075 476.8 370.075 473.9999C 400.675 467.4999 421.575 454.4999 432.175 435.3999C 440.275 420.7999 440.275 406.2999 438.9749 397.0999C 458.8749 379.0999 462.3749 359.2 461.675 345.2C 461.275 337.1 459.475 330.2 457.575 325.1zM48.275 447.3C 40.175 447.3 33.675 440.7 33.675 432.7L33.675 432.7L33.675 270.1C 33.675 262 40.275 255.5 48.275 255.5L48.275 255.5L109.275 255.5C 117.375 255.5 123.875 262.1 123.875 270.1L123.875 270.1L123.875 432.6C 123.875 440.7 117.275 447.2 109.275 447.2L109.275 447.2L48.275 447.2L48.275 447.3zM431.975 313.4C 427.775 317.8 426.975 324.5 430.175 329.7C 430.175 329.8 434.275 336.8 434.775 346.4C 435.475 359.5 429.175 371.1 415.975 381C 411.275 384.6 409.375 390.8 411.375 396.4C 411.375 396.5 415.675 409.7 408.675 422.2C 401.975 434.2 387.075 442.8 364.475 447.6C 346.375 451.5 321.775 452.2 291.575 449.8C 291.175 449.8 290.675 449.8 290.175 449.8C 225.875 451.2 160.875 442.8 160.175 442.7L160.175 442.7L160.075 442.7L149.975 441.5C 150.575 438.7 150.875 435.7 150.875 432.7L150.875 432.7L150.875 270.1C 150.875 265.8 150.175 261.6 148.975 257.7C 150.775 251 155.775 236.1 167.575 223.4C 212.475 187.8 256.375 67.70001 258.275 62.50002C 259.075 60.40002 259.275 58.10001 258.875 55.80001C 257.175 44.60001 257.775 30.90001 260.175 26.80001C 265.475 26.90001 279.775 28.40001 288.375 40.30001C 298.575 54.40002 298.175 79.60001 287.175 113C 270.375 163.9 268.975 190.7 282.275 202.5C 288.875 208.4 297.675 208.7 304.075 206.4C 310.175 205 315.975 203.8 321.475 202.9C 321.875 202.8 322.375 202.7 322.775 202.6C 353.475 195.9 408.475 191.8 427.575 209.2C 443.775 224 432.275 243.6 430.975 245.7C 427.275 251.3 428.375 258.6 433.375 263.1C 433.475 263.2 443.975 273.1 444.475 286.4C 444.875 295.3 440.675 304.4 431.975 313.4z"
       stroke="none"
       fill="#000000"
       fill-rule="nonzero"
       id="path270" />
  </g>
  <path
     style="fill:#4d4d4d;stroke-width:0.0421769"
     d="m 24.92163,30.959394 c -0.01542,-0.01623 -1.021335,-0.04623 -2.235374,-0.06666 -3.224083,-0.05425 -4.993422,-0.174155 -8.006664,-0.5426 l -0.991157,-0.121194 -0.2028,0.123046 c -0.11154,0.06768 -0.348785,0.174734 -0.527211,0.237909 l -0.32441,0.114862 -2.319728,0.01234 C 7.689081,30.731079 7.6486885,30.727416 7.0336628,30.419586 6.3281262,30.066453 5.7750361,29.330578 5.6304765,28.552675 5.5763608,28.261468 5.5691749,27.433823 5.5790259,22.626825 l 0.01145,-5.587369 0.098286,-0.295238 c 0.2896534,-0.870079 0.9608063,-1.533567 1.8207614,-1.799967 0.3152213,-0.09765 0.3246524,-0.09799 2.6993207,-0.09799 h 2.382992 l 0.358504,0.129881 c 0.197177,0.07143 0.386972,0.142686 0.421769,0.158336 0.04737,0.02131 0.105287,-0.05371 0.230524,-0.298588 0.348666,-0.681751 0.72506,-1.181576 1.373811,-1.824323 0.339502,-0.336361 0.731911,-0.763953 0.872019,-0.950204 1.151383,-1.530574 2.493383,-4.1231999 3.798077,-7.3375515 l 0.359509,-0.8857143 0.0059,-0.9278911 c 0.0067,-1.0412357 0.05244,-1.3255247 0.300784,-1.8674972 0.185554,-0.40494875 0.532187,-0.75746781 0.883464,-0.8984677 0.218197,-0.08758231 0.31906,-0.10101652 0.737785,-0.09826757 1.004698,0.0065959 1.944897,0.37848931 2.649881,1.04815557 0.92621,0.8798088 1.308335,1.9686159 1.259063,3.5875055 -0.03181,1.045236 -0.190147,1.8375897 -0.68268,3.4163265 -0.442341,1.4178556 -0.676706,2.4440758 -0.724825,3.1738098 -0.01936,0.293592 -0.01295,0.390136 0.0259,0.390136 0.02839,0 0.368146,-0.06478 0.755001,-0.143953 1.613738,-0.330268 2.745475,-0.456657 4.119699,-0.460076 2.547112,-0.0063 4.136779,0.606105 5.017523,1.933072 0.545127,0.821311 0.661804,1.837752 0.338378,2.947804 l -0.09951,0.34152 0.16356,0.253061 c 0.235767,0.364781 0.448705,0.835188 0.553673,1.22313 0.127093,0.469714 0.129016,1.295493 0.0041,1.754279 -0.114326,0.419842 -0.301442,0.827446 -0.562964,1.226334 l -0.212076,0.32347 0.117619,0.456802 c 0.102351,0.397506 0.117601,0.536187 0.117481,1.068366 -1.27e-4,0.503695 -0.01712,0.674799 -0.09642,0.970068 -0.185484,0.690666 -0.54041,1.320709 -1.045808,1.856459 l -0.273255,0.289664 -0.01181,0.666735 c -0.01033,0.582887 -0.02617,0.714209 -0.126,1.044245 -0.578053,1.911072 -2.38016,3.079594 -5.339584,3.46229 -0.550003,0.07112 -2.908026,0.13823 -2.959322,0.08422 z m 3.043676,-1.811903 c 0.629857,-0.100252 1.35942,-0.289029 1.793569,-0.464092 1.495767,-0.603142 2.146689,-1.638129 1.850169,-2.941827 -0.119187,-0.524027 -0.04081,-0.740689 0.408041,-1.127963 0.608552,-0.525067 0.911297,-0.984498 1.036653,-1.573176 0.111241,-0.522394 0.02036,-1.126838 -0.259971,-1.728979 -0.193294,-0.415192 -0.135905,-0.644472 0.293293,-1.17177 0.852434,-1.047272 0.853239,-2.01147 0.0025,-3.014293 -0.289756,-0.341562 -0.358325,-0.480774 -0.358103,-0.727038 1.27e-4,-0.151668 0.04177,-0.284601 0.166002,-0.530078 0.659747,-1.303591 0.165043,-2.410895 -1.273879,-2.851347 -0.662157,-0.202685 -0.988158,-0.235425 -2.350809,-0.236083 -0.999849,-4.85e-4 -1.417923,0.01641 -1.876871,0.07585 -0.598996,0.07757 -2.011783,0.339028 -2.693464,0.49846 -0.656648,0.153578 -1.088351,0.06127 -1.462289,-0.312668 -0.393445,-0.393444 -0.523241,-0.863361 -0.492003,-1.781261 0.0329,-0.966841 0.240215,-1.9293902 0.808156,-3.7522889 0.462615,-1.484835 0.590799,-2.1638965 0.585448,-3.1014521 -0.0042,-0.7371838 -0.0758,-1.0970031 -0.310949,-1.5628342 -0.307109,-0.6083802 -0.945731,-1.0141857 -1.756373,-1.11607 -0.194814,-0.024485 -0.22324,-0.017755 -0.266508,0.063091 -0.103287,0.192993 -0.14375,0.8786804 -0.08869,1.5029028 l 0.05253,0.5955596 -0.304706,0.7964301 c -0.929602,2.4297585 -2.125614,4.9742646 -3.125678,6.6498557 -0.806762,1.351715 -1.369204,2.082888 -2.305972,2.997754 -0.540863,0.528218 -0.995669,1.262921 -1.246625,2.013823 -0.104879,0.313815 -0.10583,0.327393 -0.04378,0.625002 0.05499,0.263728 0.06187,1.060805 0.05172,5.988735 l -0.01171,5.684516 0.611565,0.07159 c 2.639529,0.308994 4.704043,0.437453 7.457167,0.464001 0.935013,0.009 1.713176,0.02979 1.729252,0.04617 0.01607,0.01638 0.684023,0.02082 1.484329,0.0099 1.0724,-0.01467 1.571576,-0.03844 1.897959,-0.09039 z M 12.552014,28.917048 c 0.223321,-0.101436 0.461965,-0.384076 0.520471,-0.616424 0.06566,-0.260769 0.06566,-10.789458 0,-11.050227 -0.05851,-0.232349 -0.29715,-0.514989 -0.520471,-0.616424 -0.159036,-0.07224 -0.324601,-0.07776 -2.355069,-0.07863 -2.3826699,-0.001 -2.3569846,-0.0034 -2.6174744,0.243828 -0.065917,0.06256 -0.1608149,0.189668 -0.2108843,0.282457 l -0.091035,0.168707 -0.013069,5.39864 c -0.00925,3.820667 5.213e-4,5.461755 0.033428,5.614573 0.05391,0.250358 0.2649251,0.523506 0.5006302,0.648038 0.146181,0.07723 0.2640962,0.08133 2.3681275,0.08222 2.06221,8.73e-4 2.226034,-0.0044 2.385347,-0.07676 z"
     id="path281" />
</svg>
